<svg width="24" height="24" viewBox="0 0 24 24" fill="none" xmlns="http://www.w3.org/2000/svg">
<path d="M10.442 3.9939H7.64199C6.75834 3.9939 6.04199 4.71024 6.04199 5.5939V16.4139C6.04199 17.2976 6.75834 18.0139 7.64199 18.0139H10.442C11.3256 18.0139 12.042 17.2976 12.042 16.4139V5.5939C12.042 4.71024 11.3256 3.9939 10.442 3.9939Z" fill="#FFC0EC"/>
<path d="M18.1981 8.86401H15.3981C14.5144 8.86401 13.7981 9.58036 13.7981 10.464V16.414C13.7981 17.2977 14.5144 18.014 15.3981 18.014H18.1981C19.0818 18.014 19.7981 17.2977 19.7981 16.414V10.464C19.7981 9.58036 19.0818 8.86401 18.1981 8.86401Z" fill="#FFC0EC"/>
<path d="M21.706 19.89H4.08795V2.29995C4.08795 1.41595 3.37195 0.699951 2.48795 0.699951H2.29995C1.41595 0.699951 0.699951 1.41595 0.699951 2.29995V21.7C0.699951 22.584 1.41595 23.3 2.29995 23.3H2.48795C2.57395 23.3 2.65795 23.292 2.74195 23.278H21.706C22.59 23.278 23.306 22.562 23.306 21.678V21.49C23.306 20.606 22.59 19.89 21.706 19.89Z" fill="#886CFF"/>
</svg>
